<?xml version="1.0" standalone="no"?>
<!DOCTYPE svg PUBLIC "-//W3C//DTD SVG 20010904//EN"
 "http://www.w3.org/TR/2001/REC-SVG-20010904/DTD/svg10.dtd">
<svg version="1.0" xmlns="http://www.w3.org/2000/svg"
 width="380.000000pt" height="380.000000pt" viewBox="0 0 380.000000 380.000000"
 preserveAspectRatio="xMidYMid meet">
<metadata>
Created by potrace 1.14, written by Peter Selinger 2001-2017
</metadata>
<g transform="translate(0.000000,380.000000) scale(0.100000,-0.100000)"
fill="#000000" stroke="none">
<path d="M904 3572 c-34 -22 -34 -34 -34 -1675 l0 -1624 21 -27 20 -26 263 0
c211 0 266 3 282 14 18 14 19 38 24 940 l5 925 455 -925 c250 -509 464 -932
475 -940 15 -11 68 -14 246 -14 217 0 227 1 245 21 19 21 19 62 19 1659 0
1597 0 1638 -19 1659 -19 20 -27 21 -286 21 -237 0 -269 -2 -281 -17 -12 -13
-15 -177 -19 -941 l-5 -925 -459 932 c-253 513 -468 936 -477 942 -21 11 -459
12 -475 1z"/>
</g>
</svg>
